<svg id="visual" viewBox="0 0 900 600" width="900" height="600" xmlns="http://www.w3.org/2000/svg" xmlns:xlink="http://www.w3.org/1999/xlink" version="1.1"><rect x="0" y="0" width="900" height="600" fill="#ffffff"></rect><defs><linearGradient id="grad1_0" x1="33.3%" y1="100%" x2="100%" y2="0%"><stop offset="20%" stop-color="#9251f7" stop-opacity="1"></stop><stop offset="80%" stop-color="#9251f7" stop-opacity="1"></stop></linearGradient></defs><defs><linearGradient id="grad1_1" x1="33.3%" y1="100%" x2="100%" y2="0%"><stop offset="20%" stop-color="#9251f7" stop-opacity="1"></stop><stop offset="80%" stop-color="#b37dfa" stop-opacity="1"></stop></linearGradient></defs><defs><linearGradient id="grad1_2" x1="33.3%" y1="100%" x2="100%" y2="0%"><stop offset="20%" stop-color="#cfa8fd" stop-opacity="1"></stop><stop offset="80%" stop-color="#b37dfa" stop-opacity="1"></stop></linearGradient></defs><defs><linearGradient id="grad1_3" x1="33.3%" y1="100%" x2="100%" y2="0%"><stop offset="20%" stop-color="#cfa8fd" stop-opacity="1"></stop><stop offset="80%" stop-color="#e8d3fe" stop-opacity="1"></stop></linearGradient></defs><defs><linearGradient id="grad1_4" x1="33.3%" y1="100%" x2="100%" y2="0%"><stop offset="20%" stop-color="#ffffff" stop-opacity="1"></stop><stop offset="80%" stop-color="#e8d3fe" stop-opacity="1"></stop></linearGradient></defs><defs><linearGradient id="grad2_0" x1="0%" y1="100%" x2="66.7%" y2="0%"><stop offset="20%" stop-color="#9251f7" stop-opacity="1"></stop><stop offset="80%" stop-color="#9251f7" stop-opacity="1"></stop></linearGradient></defs><defs><linearGradient id="grad2_1" x1="0%" y1="100%" x2="66.7%" y2="0%"><stop offset="20%" stop-color="#b37dfa" stop-opacity="1"></stop><stop offset="80%" stop-color="#9251f7" stop-opacity="1"></stop></linearGradient></defs><defs><linearGradient id="grad2_2" x1="0%" y1="100%" x2="66.7%" y2="0%"><stop offset="20%" stop-color="#b37dfa" stop-opacity="1"></stop><stop offset="80%" stop-color="#cfa8fd" stop-opacity="1"></stop></linearGradient></defs><defs><linearGradient id="grad2_3" x1="0%" y1="100%" x2="66.7%" y2="0%"><stop offset="20%" stop-color="#e8d3fe" stop-opacity="1"></stop><stop offset="80%" stop-color="#cfa8fd" stop-opacity="1"></stop></linearGradient></defs><defs><linearGradient id="grad2_4" x1="0%" y1="100%" x2="66.7%" y2="0%"><stop offset="20%" stop-color="#e8d3fe" stop-opacity="1"></stop><stop offset="80%" stop-color="#ffffff" stop-opacity="1"></stop></linearGradient></defs><g transform="translate(900, 600)"><path d="M-405.6 0C-393.8 -54.5 -381.9 -109.1 -352 -145.8C-322.1 -182.5 -274.1 -201.5 -241.8 -241.8C-209.5 -282.2 -192.9 -343.9 -155.2 -374.7C-117.5 -405.6 -58.8 -405.6 0 -405.6L0 0Z" fill="#f4e9ff"></path><path d="M-324.5 0C-315 -43.6 -305.5 -87.2 -281.6 -116.6C-257.7 -146 -219.3 -161.2 -193.5 -193.5C-167.6 -225.7 -154.3 -275.1 -124.2 -299.8C-94 -324.5 -47 -324.5 0 -324.5L0 0Z" fill="#dcbefe"></path><path d="M-243.4 0C-236.3 -32.7 -229.1 -65.4 -211.2 -87.5C-193.3 -109.5 -164.5 -120.9 -145.1 -145.1C-125.7 -169.3 -115.8 -206.3 -93.1 -224.8C-70.5 -243.4 -35.3 -243.4 0 -243.4L0 0Z" fill="#c293fc"></path><path d="M-162.2 0C-157.5 -21.8 -152.8 -43.6 -140.8 -58.3C-128.8 -73 -109.6 -80.6 -96.7 -96.7C-83.8 -112.9 -77.2 -137.6 -62.1 -149.9C-47 -162.2 -23.5 -162.2 0 -162.2L0 0Z" fill="#a368f9"></path><path d="M-81.1 0C-78.8 -10.9 -76.4 -21.8 -70.4 -29.2C-64.4 -36.5 -54.8 -40.3 -48.4 -48.4C-41.9 -56.4 -38.6 -68.8 -31 -74.9C-23.5 -81.1 -11.8 -81.1 0 -81.1L0 0Z" fill="#9251f7"></path></g><g transform="translate(0, 0)"><path d="M405.6 0C403.3 55.6 400.9 111.1 374.7 155.2C348.5 199.3 298.5 232 253.9 253.9C209.2 275.7 170 286.9 128.6 310.4C87.2 333.9 43.6 369.8 0 405.6L0 0Z" fill="#f4e9ff"></path><path d="M324.5 0C322.6 44.5 320.8 88.9 299.8 124.2C278.8 159.5 238.8 185.6 203.1 203.1C167.4 220.6 136 229.5 102.9 248.3C69.7 267.1 34.9 295.8 0 324.5L0 0Z" fill="#dcbefe"></path><path d="M243.4 0C242 33.3 240.6 66.7 224.8 93.1C209.1 119.6 179.1 139.2 152.3 152.3C125.5 165.4 102 172.1 77.1 186.3C52.3 200.4 26.2 221.9 0 243.4L0 0Z" fill="#c293fc"></path><path d="M162.2 0C161.3 22.2 160.4 44.5 149.9 62.1C139.4 79.7 119.4 92.8 101.5 101.5C83.7 110.3 68 114.8 51.4 124.2C34.9 133.6 17.4 147.9 0 162.2L0 0Z" fill="#a368f9"></path><path d="M81.1 0C80.7 11.1 80.2 22.2 74.9 31C69.7 39.9 59.7 46.4 50.8 50.8C41.8 55.1 34 57.4 25.7 62.1C17.4 66.8 8.7 74 0 81.1L0 0Z" fill="#9251f7"></path></g></svg>