<svg id="visual" viewBox="0 0 900 600" width="900" height="600" xmlns="http://www.w3.org/2000/svg" xmlns:xlink="http://www.w3.org/1999/xlink" version="1.1"><path d="M0 331L37.5 316C75 301 150 271 225 245C300 219 375 197 450 210C525 223 600 271 675 264C750 257 825 195 862.5 164L900 133L900 0L862.5 0C825 0 750 0 675 0C600 0 525 0 450 0C375 0 300 0 225 0C150 0 75 0 37.5 0L0 0Z" fill="rgba(0, 0, 0, 0)"></path><path d="M0 451L37.5 440C75 429 150 407 225 378C300 349 375 313 450 326C525 339 600 401 675 410C750 419 825 375 862.5 353L900 331L900 131L862.5 162C825 193 750 255 675 262C600 269 525 221 450 208C375 195 300 217 225 243C150 269 75 299 37.5 314L0 329Z" fill="#3fb6f0"></path><path d="M0 601L37.5 601C75 601 150 601 225 601C300 601 375 601 450 601C525 601 600 601 675 601C750 601 825 601 862.5 601L900 601L900 329L862.5 351C825 373 750 417 675 408C600 399 525 337 450 324C375 311 300 347 225 376C150 405 75 427 37.5 438L0 449Z" fill="rgba(0, 0, 0, 0)"></path></svg>
